<svg width="200" height="206" viewBox="0 0 200 206" xmlns="http://www.w3.org/2000/svg"><title>Artboard 1</title><g fill="none" fill-rule="evenodd"><g transform="translate(88 8)"><path d="M12.5 151C50.884 151 82 119.884 82 81.5S50.884 12 12.5 12" stroke="#3093B8" stroke-width="2" stroke-linecap="round" stroke-dasharray="1,4"/><circle fill="#2488B1" cx="12" cy="12" r="12"/></g><g transform="rotate(-180 56 103)"><path d="M15.072 205.329c53.03 0 96.02-42.99 96.02-96.02 0-53.03-42.99-96.02-96.02-96.02" stroke="#0D6292" stroke-width="2" stroke-linecap="round" stroke-dasharray="1,4"/><ellipse fill="#0D6292" cx="12" cy="12" rx="12" ry="12"/></g><g transform="translate(18 72)"><path d="M0 19c0 46.713 37.869 84.582 84.582 84.582 46.714 0 84.582-37.869 84.582-84.582" stroke="#6BD3E4" stroke-width="2" stroke-linecap="round" stroke-dasharray="1,4"/><circle fill="#5BCDE2" transform="rotate(90 170 12)" cx="170" cy="12" r="12"/></g><path d="M95.484 135.618c-3.322-.146-6.239-.649-8.72-1.504-4.06-1.4-6.201-3.27-7.395-6.459-.28-.75-.39-3.08-.2-4.26.18-1.12.837-2.775 1.43-3.607.92-1.289 2.192-2.288 3.528-2.773 1.813-.658.695-.61 14.156-.61 12.273 0 12.273 0 13.619.357 4.01 1.063 6.32 3.516 6.788 7.209.241 1.909-.125 4.026-.952 5.498-.854 1.522-2.17 2.704-4.068 3.65-1.895.946-3.639 1.447-6.99 2.008-2.697.45-7.401.657-11.196.491zm40.699-7.317c.043-.148.234-.608.424-1.023.54-1.182.594-1.321 1.04-2.691.232-.71.542-1.922.688-2.691.146-.77.313-1.627.37-1.905.338-1.645.408-6.688.12-8.538-.967-6.182-2.665-9.549-6.385-12.658-2.457-2.054-6.622-3.755-10.634-4.343-3.575-.524-3.68-.527-20.131-.592-15.528-.062-15.558-.063-16.227-.293-1.836-.63-3.186-2.18-3.478-3.993-.249-1.545.616-3.576 2.185-5.128.676-.67 1.131-.96 1.404-.897 4.255.985 4.99 1.1 8.156 1.27 3.604.195 9.712-.023 11.997-.426 4.229-.747 5.773-1.143 8.881-2.276.998-.363 3.803-1.721 4.719-2.284.695-.428 2.444-1.655 2.816-1.977l.862-.746c.848-.734 2.075-2.064 2.99-3.242.785-1.012 1.96-3.1 2.593-4.614.396-.946 1.227-3.978 1.416-5.169.47-2.944.277-7.162-.49-10.711-.637-2.953-1.61-5.203-3.42-7.913-.357-.533-.757-1.09-.888-1.238-.132-.148-.493-.56-.803-.915-1.156-1.328-2.297-2.35-4.094-3.667-.958-.701-.98-.727-.468-.546 1.18.416 6.278 3.16 7.58 4.08.147.103.752.51 1.344.905.592.394 1.23.842 1.419.995.188.153.57.448.847.655.278.207.71.547.96.754.25.207.862.71 1.36 1.116 1.832 1.499 5.247 4.952 6.595 6.67.363.463.806 1.025.984 1.248 1.212 1.528 3.154 4.32 3.674 5.284.143.266.506.896.805 1.4 1.157 1.944 2.97 5.765 3.574 7.535.091.267.249.678.35.915.27.635 1.315 4.056 1.56 5.114.117.503.283 1.173.37 1.49.25.92 1 5.645 1.147 7.23.267 2.887.137 9.59-.23 11.842-.551 3.378-.824 4.765-1.282 6.513-.576 2.2-1.378 4.885-1.512 5.06-.046.059-.208.475-.361.926a18.39 18.39 0 0 1-.545 1.4c-.147.322-.363.825-.48 1.12-.118.295-.364.837-.547 1.204-.183.366-.333.695-.333.729 0 .096-1.387 2.66-2.157 3.986-.833 1.436-2.158 3.42-3.236 4.845-.439.58-.894 1.185-1.013 1.344a33.961 33.961 0 0 1-1.4 1.676c-.118.127-.53.586-.914 1.018-1.384 1.556-2.286 2.438-2.202 2.152zm-78.175-1.211c-3.491-3.602-6.878-8.427-9.162-13.053-.38-.77-.74-1.49-.8-1.601-.462-.852-1.804-4.251-2.365-5.989-.375-1.161-1.06-3.61-1.401-5.003-.162-.662-.738-3.969-.901-5.17-.505-3.716-.505-10.053-.002-13.834.65-4.88 2.319-11.074 3.88-14.401.147-.313.267-.6.267-.64 0-.203 1.753-3.74 2.417-4.875 1.613-2.76 1.585-2.717 3.827-5.915.892-1.271 3.11-3.861 4.79-5.59 3.546-3.653 8.009-7.094 12.327-9.507 1.27-.71 3.772-1.95 3.826-1.897.024.025-.355.356-.841.736-1.1.86-3.185 2.923-3.969 3.926-2.443 3.128-4.082 6.959-4.61 10.769-.237 1.721-.322 4.017-.213 5.772.112 1.8.442 4.112.696 4.882.079.237.272.867.431 1.4.458 1.54 1.708 4.274 2.338 5.113.111.148.393.56.627.915.726 1.102.936 1.362 2.124 2.631 1.622 1.734 3.831 3.465 5.801 4.546.433.238.788.476.788.529 0 .053-.182.218-.404.367-.222.15-.606.429-.854.62-.248.193-.79.596-1.206.897-1.192.863-3.666 3.069-4.919 4.385-1.467 1.543-2.328 2.644-3.631 4.65-1.115 1.716-2.012 4.73-2.012 6.762 0 1.829.442 3.806 1.225 5.48 1.824 3.9 5.386 6.578 10.336 7.772.172.041.269.114.216.163-.053.049-.702.22-1.442.38-1.293.279-1.712.396-3.984 1.114-2.382.753-4.834 1.901-6.651 3.115-1.256.839-3.073 2.645-3.819 3.796-1.225 1.89-1.764 3.64-1.88 6.109-.033.725-.092 1.319-.13 1.319-.037 0-.361-.303-.72-.673zM95.646 75.7c-1.564-.19-3.254-.86-4.097-1.621-1.676-1.515-2.923-4.562-3.387-8.277-.478-3.83-.447-10.335.067-13.936.344-2.414 1.356-5.532 2.164-6.674.535-.756 1.275-1.554 1.833-1.977 1.357-1.03 3.79-1.581 6.273-1.421 1.439.093 2.077.227 3.23.681 2.648 1.043 4.257 3.381 5.17 7.514.197.892.409 2.006.471 2.476.442 3.32.443 9.9.003 13.213-.184 1.38-.788 3.89-1.121 4.651-.078.178-.253.59-.39.915-.654 1.562-1.977 2.988-3.4 3.664-1.317.626-2.02.754-4.394.799-1.125.021-2.215.018-2.422-.007z" fill="#27508C"/></g></svg>